<svg xmlns="http://www.w3.org/2000/svg" width="64" height="42.639" viewBox="0 0 64 42.639"><defs><style>.a{opacity:0.2;}.b,.g{fill:#c92459;}.c{fill:#f2f2f2;}.d{fill:#fff;}.e{fill:#b07766;}.f,.g{opacity:0.1;}</style></defs><g transform="translate(-63 -173.361)"><ellipse class="a" cx="32" cy="4.5" rx="32" ry="4.5" transform="translate(63 207)"/><g transform="translate(-760 340)"><path class="b" d="M542.335,280.468c-1.809,1.192-3.3,2.086-4.444,2.73h0a26.006,26.006,0,0,0-5,.14c-1.171-.653-2.75-1.591-4.693-2.871l-.055-.038h0c-1.782-1.226-1.826-3.822-1.246-6.477a15.7,15.7,0,0,1,6.986,1.036,16.308,16.308,0,0,0,9.928-.107C544.186,277.224,543.958,279.4,542.335,280.468Z" transform="translate(303.672 -432.537)"/><path class="c" d="M534.864,273.5c-3.426,0-7.067-.521-7.067-1.485,0-.916,3.219-1.4,6.248-1.476V254.86a2.908,2.908,0,0,0-.535-1.421,8.61,8.61,0,0,0-.531-.751q-.254-.137-.539-.3c-1.461-.815-3.042-1.783-4.7-2.875l-.059-.04-.042-.031c-1.536-1.093-1.955-3.3-1.244-6.552a35.472,35.472,0,0,1,3.053-7.952l.044-.08.084.034c.041.016,4.146,1.606,10.589,0l.077-.019.038.07c0,.006.328.6.768,1.542a29.49,29.49,0,0,1,2.462,7.346c.448,2.813-.065,4.726-1.523,5.688h0c-1.564,1.031-3.061,1.951-4.45,2.734l-.024.013q-.293.166-.555.309c-.066.092-.13.189-.191.288-.081.133-.16.273-.232.418a6.274,6.274,0,0,0-.654,2.775l-.093,14.488c2.978.078,6.142.568,6.142,1.472C541.93,272.979,538.289,273.5,534.864,273.5Zm-7.02-24.16.01.007c1.653,1.089,3.23,2.054,4.686,2.867q.294.164.555.3l.019.01.013.017a8.87,8.87,0,0,1,.557.787,3.094,3.094,0,0,1,.565,1.529v15.88l-.1,0c-3.8.077-6.147.721-6.147,1.273,0,.605,2.818,1.28,6.862,1.28s6.862-.675,6.862-1.28c0-.544-2.31-1.184-6.043-1.27l-.1,0,.094-14.689a6.479,6.479,0,0,1,.676-2.866c.075-.15.156-.3.241-.433.068-.11.14-.218.213-.32l.014-.019.02-.011q.281-.153.6-.332l.025-.013c1.378-.778,2.863-1.691,4.415-2.714,1.385-.913,1.867-2.758,1.433-5.484a29.283,29.283,0,0,0-2.446-7.292c-.351-.749-.628-1.279-.725-1.461-5.953,1.469-9.924.228-10.551.008a34.994,34.994,0,0,0-2.991,7.82c-.7,3.2-.293,5.341,1.2,6.371Z" transform="translate(304.077 -401.5)"/><circle class="d" cx="0.512" cy="0.512" r="0.512" transform="translate(833.307 -155.858)"/><circle class="d" cx="0.307" cy="0.307" r="0.307" transform="translate(837.404 -153.298)"/><circle class="d" cx="0.307" cy="0.307" r="0.307" transform="translate(835.253 -152.991)"/></g><g transform="translate(-532 -247.812)"><path class="e" d="M831.654,463.98l9.134-4.318,1-1.162.415.5-1.079,1-8.3,5.314Z" transform="translate(-193.938 -12.838)"/><circle class="b" cx="2.74" cy="2.74" r="2.74" transform="translate(639.625 453.717)"/><circle class="f" cx="2.74" cy="2.74" r="2.74" transform="translate(639.625 453.717)"/><circle class="b" cx="2.74" cy="2.74" r="2.74" transform="translate(632.401 455.543)"/><circle class="f" cx="2.74" cy="2.74" r="2.74" transform="translate(632.401 455.543)"/><circle class="b" cx="2.74" cy="2.74" r="2.74" transform="translate(626.672 453.467)"/><circle class="b" cx="2.74" cy="2.74" r="2.74" transform="translate(627.627 451.682)"/><circle class="b" cx="2.242" cy="2.242" r="2.242" transform="translate(627.627 449.772)"/><circle class="b" cx="2.242" cy="2.242" r="2.242" transform="translate(629.454 453.924)"/><circle class="g" cx="2.242" cy="2.242" r="2.242" transform="translate(629.454 453.924)"/><circle class="b" cx="1.993" cy="1.993" r="1.993" transform="translate(631.281 449.108)"/><circle class="f" cx="1.993" cy="1.993" r="1.993" transform="translate(631.281 449.108)"/><circle class="b" cx="1.993" cy="1.993" r="1.993" transform="translate(620.154 457.412)"/><circle class="b" cx="1.993" cy="1.993" r="1.993" transform="translate(623.143 457.827)"/><circle class="b" cx="1.993" cy="1.993" r="1.993" transform="translate(623.143 456)"/><circle class="f" cx="1.993" cy="1.993" r="1.993" transform="translate(623.143 456)"/><circle class="b" cx="1.993" cy="1.993" r="1.993" transform="translate(620.154 454.422)"/><circle class="b" cx="1.993" cy="1.993" r="1.993" transform="translate(624.804 451.433)"/><circle class="f" cx="1.993" cy="1.993" r="1.993" transform="translate(624.804 451.433)"/><path class="b" d="M780.842,649.2a2.757,2.757,0,0,0-.53.052,2.243,2.243,0,0,0-3.335-1.343,1.993,1.993,0,1,0-1.027,2.375,5.982,5.982,0,0,1,.723,3.646,2.242,2.242,0,0,0,2.745.351,2.74,2.74,0,1,0,1.425-5.081Z" transform="translate(-149.935 -193.404)"/><circle class="b" cx="1.993" cy="1.993" r="1.993" transform="translate(626.672 450.727)"/><path class="b" d="M856,548.48a2.74,2.74,0,0,1-3.9-.913c-.07,0-.139,0-.208.009a5.03,5.03,0,0,0-9.8-1.545c0,.077,0,.153.01.228a2.242,2.242,0,1,0,.1,4.427,9.693,9.693,0,0,1,6.854,8.583,10.393,10.393,0,0,0,2.33-6.315,5.692,5.692,0,0,1,5.547.844A2.74,2.74,0,0,0,856,548.48Zm-12.6,1.571a2.234,2.234,0,0,0,.636-1.4,2.738,2.738,0,0,0,.8.118l.114,0a1.008,1.008,0,1,1-1.546,1.284Z" transform="translate(-210.894 -98.5)"/></g></g></svg>