<svg xmlns="http://www.w3.org/2000/svg" width="266.81" height="199.828" viewBox="0 0 266.81 199.828"><defs><style>.a,.j{fill:#de933d;}.a{opacity:0.1;}.b{fill:#2f2e41;}.c{fill:#9f616a;}.d{fill:#b07766;}.e{opacity:0.2;}.f{fill:#c92459;}.g{fill:#ffb9b9;}.h{fill:#e7815b;}.i{fill:#e6e6e6;}</style></defs><g transform="translate(0 75.298)"><path class="a" d="M172.539,159.394c5.089,11.015-1.4,23.7-9.045,33.249-2.558,3.2-5.381,6.56-5.736,10.577-.428,4.914,3.045,9.431,7.165,12.384a31.247,31.247,0,0,0,26.719,4.329c7.728-2.346,14.225-7.644,22.021-9.78,13.036-3.577,26.855,2.353,38.019,9.743,7.9,5.224,16.366,11.589,25.892,10.47,6.7-.787,12.392-5.3,16.253-10.6,1.864-2.563,3.486-5.436,6.2-7.165a15.939,15.939,0,0,1,5.4-1.964c17.309-3.545,35.68,5.106,52.76.657,11.537-3,20.735-11.742,26.456-21.8s8.39-21.42,10.614-32.674c1.58-7.994,2.892-16.631-.74-23.983-3.843-7.784-12.739-12.5-21.679-13.388s-17.907,1.556-26.143,5c-10.291,4.312-20.378,10.348-31.61,10.368-7.65.015-14.945-2.8-22.258-4.944-12.228-3.585-24.944-5.366-37.615-7.01-12.131-1.574-24.383-3.038-36.587-2.109-8.635.657-16.261,3.82-24.641,5.284-5.462.954-10.95.25-16.311,1.849-6.6,1.979-13.391,6.563-13.756,13.783C163.578,148.534,169.841,153.551,172.539,159.394Z" transform="translate(-146.791 -194.559)"/><path class="b" d="M164.889,306.245c.246,15.16,5.912,16.8,12.87,15.22a25.571,25.571,0,0,0,17.689-14.959l2.218-5.166a14.092,14.092,0,0,0-7.391-18.509h0a14.092,14.092,0,0,0-18.509,7.391C164.63,293.026,163.221,298.83,164.889,306.245Z" transform="translate(-153.45 -292.334)"/><path class="c" d="M294.266,235.991l2.136-3.614a3.4,3.4,0,0,0-1.919-4.97h0a3.4,3.4,0,0,0-4.4,3.353l.125,3.885-10.037,27.507,5.473,1.143Z" transform="translate(-236.331 -252.593)"/><path class="c" d="M127.594,441.092l-2.629,3.273a3.4,3.4,0,0,0,1.191,5.193h0a3.4,3.4,0,0,0,4.83-2.692l.429-3.863,13.854-25.8-5.255-1.911Z" transform="translate(-124.217 -389.885)"/><path class="d" d="M196.912,526.477l.387,4.648.091,1.084,25.729-2.475a5.673,5.673,0,0,0,4.543-7.954l-8.3-17.814-2.866-6.153-12.42-2.866c-10.242,7.839-1.027,16.49,10.567,25.242q.681.516,1.376,1.032Z" transform="translate(-177.293 -448.041)"/><path class="b" d="M160.5,623.775h0a1.849,1.849,0,0,0,1.687-.653l8.416-10.188-.478-4.777-2.87-1.722a1.886,1.886,0,0,0-2.724.925l-5.489,13.906a1.849,1.849,0,0,0,1.458,2.509Z" transform="translate(-149.546 -529.243)"/><path class="e" d="M191.6,525.522l.478,5.732,1.342-.129,24.387-2.346a5.673,5.673,0,0,0,4.543-7.954l-6.865-15.368v-1.49l-2.866-6.153-12.42-2.866c-10.242,7.839-1.027,16.49,10.567,25.242l-.057.076Z" transform="translate(-173.416 -448.041)"/><path class="b" d="M151.644,616.7h0a1.849,1.849,0,0,0,1.687-.653l8.416-10.188-.478-4.777-2.87-1.722a1.886,1.886,0,0,0-2.724.925l-5.489,13.906a1.849,1.849,0,0,0,1.458,2.509Z" transform="translate(-143.084 -524.074)"/><path class="d" d="M188.062,519.4l.478,5.733,25.729-2.475a5.674,5.674,0,0,0,4.545-7.953l-6.867-15.368v-8.6l-16.72-2.866c-10.645,8.147-.273,17.172,11.943,26.274Z" transform="translate(-170.831 -442.872)"/><circle class="c" cx="7.166" cy="7.166" r="7.166" transform="translate(26.307 -5.163)"/><path class="c" d="M212.843,352.137l10.032,6.688,8.6-1.911-4.777-4.777v-7.166l-7.643-.478C218.893,347.356,217.253,349.974,212.843,352.137Z" transform="translate(-188.924 -338.192)"/><path class="f" d="M206.436,402.378l18.631,2.389,4.3-20.064c2-5.326.851-10.031-2.847-14.233a3.191,3.191,0,0,0-3.032-2.564l-1.764.077c.2,6.336-4.468,4.81-11.465-.478l-.845.253A4.745,4.745,0,0,0,206.082,373l.77,5.2a35.581,35.581,0,0,0,1.517,6.063C210.279,389.971,209.6,396.014,206.436,402.378Z" transform="translate(-183.951 -354.992)"/><path class="f" d="M175.672,384.622l8.6,2.866,3.822-13.854-1.295-.589a4.643,4.643,0,0,0-6.014,2.034Z" transform="translate(-161.785 -358.733)"/><path class="f" d="M145.27,231.161l4.777,5.255,5.732-9.076-7.166-3.822Z" transform="translate(-106.065 -218.171)"/><path class="b" d="M217.268,305.09c4.5,1.7,9.308,1.522,14.331,0v-5.732H217.268Z" transform="translate(-192.155 -305.237)"/><path class="d" d="M737.373,401.839l-4.94,2.058L699.5,359.025l-23.877,45.7-6.175-1.235L687.56,340.5h20.995Z" transform="translate(-478.775 -303.582)"/><path class="b" d="M1034.412,694.569h0a2.153,2.153,0,0,1-1.64-.211l-10.418-6a2.114,2.114,0,0,1-.44-3.327l.931-.931,4.94-.412,7.552,7.25a2.153,2.153,0,0,1-.924,3.63Z" transform="translate(-769.188 -585.844)"/><path class="b" d="M766.339,700.671h0a2.152,2.152,0,0,0,1.64-.211l10.418-6a2.114,2.114,0,0,0,.44-3.327l-.931-.931-4.94-.412-7.552,7.25a2.153,2.153,0,0,0,.924,3.63Z" transform="translate(-584.743 -590.299)"/><path class="g" d="M790.556,187.139l-2.058,1.235-4.266-6.931a3.117,3.117,0,0,1,2.013-4.684h0a3.117,3.117,0,0,1,3.751,2.82Z" transform="translate(-598.648 -215.676)"/><path class="g" d="M1020.19,409.292l.854-2.243,7.638,2.81a3.117,3.117,0,0,1,1.315,4.926h0a3.117,3.117,0,0,1-4.692.1Z" transform="translate(-768.382 -383.864)"/><circle class="g" cx="6.175" cy="6.175" r="6.175" transform="translate(211.63 -16.187)"/><path class="g" d="M772.664,187.578h-8.645v-9.468l7.41-.823Z" transform="translate(-547.824 -184.416)"/><path class="h" d="M879.666,352.328H856.2c.827-13.093,1.483-25.745,0-32.934l1.364-6.549a3.69,3.69,0,0,1,4.07-2.909l3.211.4c2.174,3.822,4.8,3.786,7.822.412h3.867a3.877,3.877,0,0,1,3.876,3.954h0a48.974,48.974,0,0,1,.995,14.056Z" transform="translate(-648.651 -312.939)"/><path class="h" d="M672.5,93.513l3.293-1.647,17.7,29.229-4.94,7.41Z" transform="translate(-483.306 -122.05)"/><path class="h" d="M950.578,341.557l2.814-2.374-14.955-20.956a13.254,13.254,0,0,0-13.182-5.337l-.472.087,5.655,9.9,7.448,5.639Z" transform="translate(-698.724 -314.957)"/><path class="b" d="M888.815,254.228s1.154-2.539-1.846-3.692c0,0-2.539-4.154-7.616-1.385a5.718,5.718,0,0,0-3.462,5.077c0,3.692-1.154,4.385-1.154,4.385a11.138,11.138,0,0,0,2.18-3.147c.462-1.385,4.051-1.7,5.436-.314S887.2,256.3,887.2,256.3l-.231,5.077s1.154-3,1.615-3S889.507,254.228,888.815,254.228Z" transform="translate(-663.828 -267.885)"/><ellipse class="i" cx="37.784" cy="1.968" rx="37.784" ry="1.968" transform="translate(188.276 120.594)"/><ellipse class="i" cx="19.971" cy="1.04" rx="19.971" ry="1.04" transform="translate(7.44 121.522)"/><path class="j" d="M53.743,26.989A26.754,26.754,0,1,1,26.989.234,26.754,26.754,0,0,1,53.743,26.989ZM23.894,41.155,43.744,21.3a1.726,1.726,0,0,0,0-2.441L41.3,16.423a1.726,1.726,0,0,0-2.441,0L22.673,32.611l-7.558-7.558a1.726,1.726,0,0,0-2.441,0l-2.441,2.441a1.726,1.726,0,0,0,0,2.441l11.22,11.22A1.726,1.726,0,0,0,23.894,41.155Z" transform="translate(103.406 -51.843)"/></g></svg>