<svg xmlns="http://www.w3.org/2000/svg" xmlns:xlink="http://www.w3.org/1999/xlink" width="59" height="172" viewBox="0 0 59 172"><defs><style>.a{fill:#fff;stroke:#707070;}.b{clip-path:url(#a);}.c{fill:#3f3d56;}.d{fill:#f5f1bf;}.e{fill:#c92459;}</style><clipPath id="a"><rect class="a" width="59" height="172" transform="translate(52 31)"/></clipPath></defs><g class="b" transform="translate(-52 -31)"><g transform="translate(-1012 -127)"><path class="c" d="M736.063,208.282a30.3,30.3,0,0,0-8.943-6.178V138.32a2.82,2.82,0,0,0-2.82-2.82h-15.79a2.82,2.82,0,0,0-2.82,2.82v62.56a28.625,28.625,0,0,0-19.614,27.161V364.864A12.538,12.538,0,0,0,698.615,377.4h33.823a12.48,12.48,0,0,0,12.48-12.48V229.653a30.129,30.129,0,0,0-8.855-21.372Z" transform="translate(378.077 23.5)"/><rect class="d" width="58.841" height="77.728" transform="translate(1064.154 271.598)"/><path class="e" d="M754.938,139.859h-1.271V138.32a2.82,2.82,0,0,0-2.82-2.82h-15.79a2.82,2.82,0,0,0-2.82,2.82v1.539h-1.271V146.4h1.271v33.416h21.43V146.4h1.271Z" transform="translate(351.53 22.5)"/></g></g></svg>